<svg xmlns="http://www.w3.org/2000/svg" viewBox="0 0 512 512" role="img" aria-label="Orca-Tech">
  <rect width="512" height="512" fill="#0a0c10"/>
  <rect x="20" y="20" width="472" height="472" rx="36" fill="none" stroke="#2f6fff" stroke-opacity="0.35" stroke-width="12"/>
  <g transform="translate(56 56) scale(0.784)">
    <path fill="#f5f6f8" fill-rule="evenodd" d="M139.932 14.828C130.131 21.044 118.027 30.484 107.655 40C99.338 47.632 98.114 48.879 93 54.934C90.525 57.864 88.05 60.765 87.5 61.381C72.083 78.638 54.93 113.703 49.04 140C47.87 145.225 46.509 151.3 46.016 153.5C41.109 175.368 42.775 215.977 49.604 241C55.526 262.701 65.127 284.188 76.708 301.66C80.111 306.795 86.129 315.164 87.019 316C87.312 316.275 89.085 318.525 90.958 321C92.832 323.475 97.545 328.659 101.432 332.52C113.507 344.512 118.039 347.583 116.531 342.75C111.025 325.099 109.776 315.192 112.557 311.223C115.508 307.008 118.268 308.308 129.606 319.25C142.223 331.427 150.978 337.882 164.5 344.981C170 347.868 174.95 350.575 175.5 350.996C177.379 352.436 198.48 359.987 210.5 363.521C240.235 372.264 249.262 377.103 256.842 388.358C264.127 399.176 265.389 408.415 264.762 446.336L264.268 476.172 267.884 475.514C285.401 472.327 307.295 456.506 315.28 441.266C327.652 417.652 329.225 394.604 322.871 330C318.967 290.31 322.092 267.674 335.501 238.5C346.388 214.814 372.08 187.482 393.119 177.206C407.101 170.377 423.112 167.949 430.703 171.507C440.286 175.999 446.804 184.229 449.787 195.604C452.527 206.051 453.367 203.322 452.668 186.25C450.889 142.8 438.456 129.302 400.5 129.615C369.941 129.867 333.982 142.542 294.5 166.977C276.399 178.18 273.113 179.298 260 178.72C254.225 178.465 244.775 177.489 239 176.551C221.363 173.688 204.452 176.579 184.75 185.825C173.599 191.058 172.261 192.388 176.521 194.008C183.345 196.602 193 210.836 193 218.301L193 222.21 197.25 221.602C206.375 220.297 219.501 219.787 218.5 220.776C216.769 222.486 201.606 226.894 191.351 228.668C176.931 231.163 153.925 230.945 143.882 228.218C135.593 225.967 124.252 220.815 121.079 217.859C119.982 216.837 118.666 216 118.156 216C116.304 216 105.053 202.92 101.611 196.765C75.433 149.954 100.273 115.734 154.5 123.906C176.429 127.21 190.897 123.09 204.323 109.718C210.56 103.507 216.04 94.707 214.581 93.247C214.258 92.925 211.858 93.616 209.247 94.783C203.001 97.575 199.336 98.221 190.138 98.147C181.914 98.082 178.424 97.096 161 89.918C152.015 86.216 149.454 85.585 143.25 85.546C136.462 85.503 134.022 84.341 136.937 82.539C138.739 81.425 141.002 75.655 142.093 69.39C143.221 62.91 141.804 49 140.015 49C139.573 49 139.29 43.938 139.386 37.75C139.53 28.525 139.96 25.626 141.773 21.641C142.989 18.969 143.693 16.312 143.337 15.737C142.982 15.162 143.163 14.983 143.741 15.34C144.318 15.697 145.063 15.279 145.395 14.412C146.666 11.1 145.694 11.174 139.932 14.828M336.5 171.17C323.812 173.88 312.282 180.586 301.197 191.703C295.374 197.544 295.324 198.292 300.639 200.046C310.838 203.412 327.951 194.37 338.45 180.069C341.786 175.524 342.953 171.627 341.25 170.717C340.837 170.497 338.7 170.7 336.5 171.17M380.286 344.045C371.277 352.196 357.444 361.825 347.75 366.692C344.038 368.556 341 370.582 341 371.194C341 371.806 342.293 375.05 343.873 378.403C351.71 395.037 353.677 426.358 347.822 441.282C346.25 445.289 347.282 445.572 352.611 442.594C369.649 433.071 382.594 415.826 390.214 392.5C392.894 384.295 393.707 363.693 391.896 349.865C391.149 344.164 390.592 338.938 390.658 338.25C390.918 335.53 387.724 337.315 380.286 344.045"/>
  </g>
</svg>
